name C:\Users\u0101727\Documents\MyRepositories\upper-imu-dc\OpenSim\subject0\MA\ResultsMA\grid_4nodes_9dim\angles_5.mot
datacolumns 10
datarows 56
range 525.01000000 525.56000000
endheader 
time	clav_prot	clav_elev	scapula_abduction	scapula_elevation	scapula_upward_rot	scapula_winging	plane_elv	shoulder_elv	axial_rot	
        525.01000000	        -50.00000000	          0.00000000	        -21.66666667	        -10.00000000	         30.00000000	         10.00000000	        -90.00000000	        100.00000000	        -90.00000000	
        525.02000000	        -38.33333333	          0.00000000	        -21.66666667	        -10.00000000	         30.00000000	         10.00000000	        -90.00000000	        100.00000000	        -90.00000000	
        525.03000000	        -26.66666667	          0.00000000	        -21.66666667	        -10.00000000	         30.00000000	         10.00000000	        -90.00000000	        100.00000000	        -90.00000000	
        525.04000000	        -15.00000000	          0.00000000	        -21.66666667	        -10.00000000	         30.00000000	         10.00000000	        -90.00000000	        100.00000000	        -90.00000000	
        525.05000000	        -50.00000000	         10.00000000	        -21.66666667	        -10.00000000	         30.00000000	         10.00000000	        -90.00000000	        100.00000000	        -90.00000000	
        525.06000000	        -38.33333333	         10.00000000	        -21.66666667	        -10.00000000	         30.00000000	         10.00000000	        -90.00000000	        100.00000000	        -90.00000000	
        525.07000000	        -26.66666667	         10.00000000	        -21.66666667	        -10.00000000	         30.00000000	         10.00000000	        -90.00000000	        100.00000000	        -90.00000000	
        525.08000000	        -15.00000000	         10.00000000	        -21.66666667	        -10.00000000	         30.00000000	         10.00000000	        -90.00000000	        100.00000000	        -90.00000000	
        525.09000000	        -50.00000000	         20.00000000	        -21.66666667	        -10.00000000	         30.00000000	         10.00000000	        -90.00000000	        100.00000000	        -90.00000000	
        525.10000000	        -38.33333333	         20.00000000	        -21.66666667	        -10.00000000	         30.00000000	         10.00000000	        -90.00000000	        100.00000000	        -90.00000000	
        525.11000000	        -26.66666667	         20.00000000	        -21.66666667	        -10.00000000	         30.00000000	         10.00000000	        -90.00000000	        100.00000000	        -90.00000000	
        525.12000000	        -15.00000000	         20.00000000	        -21.66666667	        -10.00000000	         30.00000000	         10.00000000	        -90.00000000	        100.00000000	        -90.00000000	
        525.13000000	        -50.00000000	        -10.00000000	         -3.33333333	        -10.00000000	         30.00000000	         10.00000000	        -90.00000000	        100.00000000	        -90.00000000	
        525.14000000	        -38.33333333	        -10.00000000	         -3.33333333	        -10.00000000	         30.00000000	         10.00000000	        -90.00000000	        100.00000000	        -90.00000000	
        525.15000000	        -26.66666667	        -10.00000000	         -3.33333333	        -10.00000000	         30.00000000	         10.00000000	        -90.00000000	        100.00000000	        -90.00000000	
        525.16000000	        -15.00000000	        -10.00000000	         -3.33333333	        -10.00000000	         30.00000000	         10.00000000	        -90.00000000	        100.00000000	        -90.00000000	
        525.17000000	        -50.00000000	          0.00000000	         -3.33333333	        -10.00000000	         30.00000000	         10.00000000	        -90.00000000	        100.00000000	        -90.00000000	
        525.18000000	        -38.33333333	          0.00000000	         -3.33333333	        -10.00000000	         30.00000000	         10.00000000	        -90.00000000	        100.00000000	        -90.00000000	
        525.19000000	        -26.66666667	          0.00000000	         -3.33333333	        -10.00000000	         30.00000000	         10.00000000	        -90.00000000	        100.00000000	        -90.00000000	
        525.20000000	        -15.00000000	          0.00000000	         -3.33333333	        -10.00000000	         30.00000000	         10.00000000	        -90.00000000	        100.00000000	        -90.00000000	
        525.21000000	        -50.00000000	         10.00000000	         -3.33333333	        -10.00000000	         30.00000000	         10.00000000	        -90.00000000	        100.00000000	        -90.00000000	
        525.22000000	        -38.33333333	         10.00000000	         -3.33333333	        -10.00000000	         30.00000000	         10.00000000	        -90.00000000	        100.00000000	        -90.00000000	
        525.23000000	        -26.66666667	         10.00000000	         -3.33333333	        -10.00000000	         30.00000000	         10.00000000	        -90.00000000	        100.00000000	        -90.00000000	
        525.24000000	        -15.00000000	         10.00000000	         -3.33333333	        -10.00000000	         30.00000000	         10.00000000	        -90.00000000	        100.00000000	        -90.00000000	
        525.25000000	        -50.00000000	         20.00000000	         -3.33333333	        -10.00000000	         30.00000000	         10.00000000	        -90.00000000	        100.00000000	        -90.00000000	
        525.26000000	        -38.33333333	         20.00000000	         -3.33333333	        -10.00000000	         30.00000000	         10.00000000	        -90.00000000	        100.00000000	        -90.00000000	
        525.27000000	        -26.66666667	         20.00000000	         -3.33333333	        -10.00000000	         30.00000000	         10.00000000	        -90.00000000	        100.00000000	        -90.00000000	
        525.28000000	        -15.00000000	         20.00000000	         -3.33333333	        -10.00000000	         30.00000000	         10.00000000	        -90.00000000	        100.00000000	        -90.00000000	
        525.29000000	        -50.00000000	        -10.00000000	         15.00000000	        -10.00000000	         30.00000000	         10.00000000	        -90.00000000	        100.00000000	        -90.00000000	
        525.30000000	        -38.33333333	        -10.00000000	         15.00000000	        -10.00000000	         30.00000000	         10.00000000	        -90.00000000	        100.00000000	        -90.00000000	
        525.31000000	        -26.66666667	        -10.00000000	         15.00000000	        -10.00000000	         30.00000000	         10.00000000	        -90.00000000	        100.00000000	        -90.00000000	
        525.32000000	        -15.00000000	        -10.00000000	         15.00000000	        -10.00000000	         30.00000000	         10.00000000	        -90.00000000	        100.00000000	        -90.00000000	
        525.33000000	        -50.00000000	          0.00000000	         15.00000000	        -10.00000000	         30.00000000	         10.00000000	        -90.00000000	        100.00000000	        -90.00000000	
        525.34000000	        -38.33333333	          0.00000000	         15.00000000	        -10.00000000	         30.00000000	         10.00000000	        -90.00000000	        100.00000000	        -90.00000000	
        525.35000000	        -26.66666667	          0.00000000	         15.00000000	        -10.00000000	         30.00000000	         10.00000000	        -90.00000000	        100.00000000	        -90.00000000	
        525.36000000	        -15.00000000	          0.00000000	         15.00000000	        -10.00000000	         30.00000000	         10.00000000	        -90.00000000	        100.00000000	        -90.00000000	
        525.37000000	        -50.00000000	         10.00000000	         15.00000000	        -10.00000000	         30.00000000	         10.00000000	        -90.00000000	        100.00000000	        -90.00000000	
        525.38000000	        -38.33333333	         10.00000000	         15.00000000	        -10.00000000	         30.00000000	         10.00000000	        -90.00000000	        100.00000000	        -90.00000000	
        525.39000000	        -26.66666667	         10.00000000	         15.00000000	        -10.00000000	         30.00000000	         10.00000000	        -90.00000000	        100.00000000	        -90.00000000	
        525.40000000	        -15.00000000	         10.00000000	         15.00000000	        -10.00000000	         30.00000000	         10.00000000	        -90.00000000	        100.00000000	        -90.00000000	
        525.41000000	        -50.00000000	         20.00000000	         15.00000000	        -10.00000000	         30.00000000	         10.00000000	        -90.00000000	        100.00000000	        -90.00000000	
        525.42000000	        -38.33333333	         20.00000000	         15.00000000	        -10.00000000	         30.00000000	         10.00000000	        -90.00000000	        100.00000000	        -90.00000000	
        525.43000000	        -26.66666667	         20.00000000	         15.00000000	        -10.00000000	         30.00000000	         10.00000000	        -90.00000000	        100.00000000	        -90.00000000	
        525.44000000	        -15.00000000	         20.00000000	         15.00000000	        -10.00000000	         30.00000000	         10.00000000	        -90.00000000	        100.00000000	        -90.00000000	
        525.45000000	        -50.00000000	        -10.00000000	        -40.00000000	         -3.33333333	         30.00000000	         10.00000000	        -90.00000000	        100.00000000	        -90.00000000	
        525.46000000	        -38.33333333	        -10.00000000	        -40.00000000	         -3.33333333	         30.00000000	         10.00000000	        -90.00000000	        100.00000000	        -90.00000000	
        525.47000000	        -26.66666667	        -10.00000000	        -40.00000000	         -3.33333333	         30.00000000	         10.00000000	        -90.00000000	        100.00000000	        -90.00000000	
        525.48000000	        -15.00000000	        -10.00000000	        -40.00000000	         -3.33333333	         30.00000000	         10.00000000	        -90.00000000	        100.00000000	        -90.00000000	
        525.49000000	        -50.00000000	          0.00000000	        -40.00000000	         -3.33333333	         30.00000000	         10.00000000	        -90.00000000	        100.00000000	        -90.00000000	
        525.50000000	        -38.33333333	          0.00000000	        -40.00000000	         -3.33333333	         30.00000000	         10.00000000	        -90.00000000	        100.00000000	        -90.00000000	
        525.51000000	        -26.66666667	          0.00000000	        -40.00000000	         -3.33333333	         30.00000000	         10.00000000	        -90.00000000	        100.00000000	        -90.00000000	
        525.52000000	        -15.00000000	          0.00000000	        -40.00000000	         -3.33333333	         30.00000000	         10.00000000	        -90.00000000	        100.00000000	        -90.00000000	
        525.53000000	        -50.00000000	         10.00000000	        -40.00000000	         -3.33333333	         30.00000000	         10.00000000	        -90.00000000	        100.00000000	        -90.00000000	
        525.54000000	        -38.33333333	         10.00000000	        -40.00000000	         -3.33333333	         30.00000000	         10.00000000	        -90.00000000	        100.00000000	        -90.00000000	
        525.55000000	        -26.66666667	         10.00000000	        -40.00000000	         -3.33333333	         30.00000000	         10.00000000	        -90.00000000	        100.00000000	        -90.00000000	
        525.56000000	        -15.00000000	         10.00000000	        -40.00000000	         -3.33333333	         30.00000000	         10.00000000	        -90.00000000	        100.00000000	        -90.00000000	
